<svg width="876" height="805" xmlns="http://www.w3.org/2000/svg" xmlns:xlink="http://www.w3.org/1999/xlink" xml:space="preserve" overflow="hidden"><g transform="translate(-2704 -693)"><path d="M3125.23 693.067C3145.36 692.749 3169.52 693.63 3201 694.972 3380.4 702.602 3402.01 719.391 3500.06 927.317 3543.75 1019.98 3579.72 1114.56 3579.98 1137.52 3581.45 1262.21 3475.84 1350.79 3214.14 1444.39 3055.03 1501.28 2988.34 1509.88 2935.12 1480.54 2867.75 1443.32 2816.36 1379.88 2791.14 1302.71 2776.67 1258.46 2751.59 1195.86 2735.39 1163.6 2657.22 1007.87 2728.69 877.628 2963.21 748.424 3040.64 705.769 3064.84 694.017 3125.23 693.067Z" fill="#2D2323" fill-rule="evenodd"/></g></svg>