<svg width="901" height="850" xmlns="http://www.w3.org/2000/svg" xmlns:xlink="http://www.w3.org/1999/xlink" xml:space="preserve" overflow="hidden"><defs><clipPath id="clip0"><rect x="1513" y="700" width="901" height="850"/></clipPath></defs><g clip-path="url(#clip0)" transform="translate(-1513 -700)"><path d="M2117.62 700.32C2228.28 704.566 2321.42 751.271 2361.46 828.721 2414.05 930.457 2428.68 1100.73 2398.44 1259.19 2383.24 1338.85 2358.82 1417.27 2344.16 1433.49 2315.92 1464.69 2202.2 1509.97 2088.21 1535.27 1979.67 1559.47 1855.6 1553.57 1757.34 1519.64 1632.04 1476.31 1587.61 1428.5 1547.52 1293.82 1498.67 1129.78 1502.49 1055.66 1563.74 978.551 1591.41 943.73 1618.87 893.26 1624.76 866.41 1640.94 792.715 1688.4 761.094 1808.13 744.277 1867.81 735.888 1955.24 720.762 2002.43 710.652 2041.89 702.198 2080.73 698.898 2117.62 700.32Z" fill="#302020" fill-rule="evenodd"/></g></svg>